<?xml version="1.0" encoding="UTF-8"?>
<!DOCTYPE svg PUBLIC "-//W3C//DTD SVG 1.1//EN" "http://www.w3.org/Graphics/SVG/1.1/DTD/svg11.dtd">
<!-- Creator: CorelDRAW -->
<svg xmlns="http://www.w3.org/2000/svg" xml:space="preserve" width="6.82666in" height="6.82666in" style="shape-rendering:geometricPrecision; text-rendering:geometricPrecision; image-rendering:optimizeQuality; fill-rule:evenodd; clip-rule:evenodd"
viewBox="0 0 6.82666 6.82666"
 xmlns:xlink="http://www.w3.org/1999/xlink">
 <defs>
  <style type="text/css">
   <![CDATA[
    .fil4 {fill:none}
    .fil3 {fill:#63CBE5}
    .fil2 {fill:#AED581}
    .fil1 {fill:#EBE5DF}
    .fil0 {fill:#212121;fill-rule:nonzero}
   ]]>
  </style>
 </defs>
 <g id="Layer_x0020_1">
  <metadata id="CorelCorpID_0Corel-Layer"/>
  <path class="fil0" d="M2.7142 1.99534c-0.0499331,0.0310669 -0.115602,0.0157677 -0.146669,-0.0341654 -0.0310669,-0.0499331 -0.0157677,-0.115602 0.0341654,-0.146669l0.0186969 -0.0116339c0.027626,-0.0172047 0.0558701,-0.034811 0.0677441,-0.0405118 0.149311,-0.0717874 0.30761,-0.127535 0.472638,-0.165 0.161311,-0.036622 0.32828,-0.0559606 0.498768,-0.0559606 0.62,0 1.18132,0.251319 1.58763,0.657634 0.406315,0.406311 0.657634,0.967634 0.657634,1.58763 0,0.62 -0.251319,1.18132 -0.657634,1.58763 -0.406311,0.406315 -0.967634,0.657634 -1.58763,0.657634 -0.62,0 -1.18132,-0.251319 -1.58763,-0.657634 -0.406315,-0.406311 -0.657634,-0.967634 -0.657634,-1.58763 0,-0.109638 0.00805118,-0.21822 0.0235906,-0.325146 0.0158307,-0.108909 0.0393661,-0.215012 0.0700157,-0.317736 0.0167953,-0.056378 0.076122,-0.0884606 0.1325,-0.0716654 0.056378,0.0167953 0.0884606,0.076122 0.0716654,0.1325 -0.0278346,0.0932913 -0.0491339,0.189114 -0.0633465,0.286902 -0.0138898,0.0955748 -0.0210866,0.19411 -0.0210866,0.295146 0,0.561114 0.227433,1.06911 0.59513,1.4368 0.367693,0.367697 0.875685,0.59513 1.4368,0.59513 0.561114,0 1.06911,-0.227433 1.4368,-0.59513 0.367697,-0.367693 0.59513,-0.875685 0.59513,-1.4368 0,-0.561114 -0.227433,-1.06911 -0.59513,-1.4368 -0.367693,-0.367697 -0.875685,-0.59513 -1.4368,-0.59513 -0.156319,0 -0.30761,0.0173268 -0.452098,0.050126 -0.149646,0.0339724 -0.292866,0.0843661 -0.427638,0.149165 -0.00329921,0.00158268 -0.0221535,0.0142638 -0.0469094,0.0296772l-0.0186969 0.0116339z"/>
  <path class="fil0" d="M5.22452 2.30529c0.0492441,-0.0322165 0.115283,-0.0184134 0.1475,0.0308307 0.0322165,0.0492441 0.0184134,0.115283 -0.0308307,0.1475 -0.209004,0.137024 -0.468874,0.248319 -0.76274,0.324362 -0.280862,0.0726772 -0.592173,0.113213 -0.918902,0.113213 -0.223075,0 -0.439051,-0.018874 -0.643118,-0.0539409 -0.211201,-0.0362992 -0.409441,-0.0901378 -0.589417,-0.158528 -0.0549961,-0.0207087 -0.0827913,-0.0820866 -0.0620827,-0.137083 0.0207087,-0.0549961 0.0820866,-0.0827913 0.137083,-0.0620827 0.167071,0.0634843 0.35211,0.113642 0.550252,0.147693 0.191433,0.0328976 0.395323,0.0506024 0.607283,0.0506024 0.310217,0 0.603327,-0.0378465 0.865571,-0.105709 0.270413,-0.0699724 0.508689,-0.171827 0.699402,-0.296858z"/>
  <path class="fil0" d="M2.09457 5.26804c-0.0492441,0.0322165 -0.115283,0.0184134 -0.1475,-0.0308307 -0.0322165,-0.0492441 -0.0184134,-0.115283 0.0308307,-0.1475 0.209,-0.137024 0.46887,-0.248315 0.762736,-0.324358 0.280862,-0.0726772 0.592169,-0.113213 0.918906,-0.113213 0.326736,0 0.638043,0.0405354 0.918906,0.113213 0.293866,0.0760433 0.553736,0.187335 0.762736,0.324358 0.0492441,0.0322165 0.0630472,0.0982559 0.0308307,0.1475 -0.0322165,0.0492441 -0.0982559,0.0630472 -0.1475,0.0308307 -0.190709,-0.125031 -0.42898,-0.226878 -0.699398,-0.296854 -0.262244,-0.0678622 -0.555354,-0.105709 -0.865575,-0.105709 -0.31022,0 -0.603331,0.0378465 -0.865575,0.105709 -0.270417,0.0699764 -0.508689,0.171823 -0.699398,0.296854z"/>
  <path class="fil0" d="M3.65955 1.5414c0.373827,0 0.707209,0.260236 0.943996,0.680969 0.226303,0.402102 0.36628,0.955315 0.36628,1.5643 0,0.608984 -0.139976,1.1622 -0.36628,1.5643 -0.236787,0.420732 -0.570169,0.680969 -0.943996,0.680969 -0.373827,0 -0.707209,-0.260236 -0.943996,-0.680969 -0.226303,-0.402102 -0.36628,-0.955315 -0.36628,-1.5643 0,-0.608984 0.139976,-1.1622 0.36628,-1.5643 0.236787,-0.420732 0.570169,-0.680969 0.943996,-0.680969zm0.758161 0.785134c-0.198827,-0.353283 -0.467264,-0.571795 -0.758161,-0.571795 -0.290898,0 -0.559335,0.218512 -0.758161,0.571795 -0.209311,0.371909 -0.338776,0.888012 -0.338776,1.46013 0,0.572122 0.129465,1.08822 0.338776,1.46013 0.198827,0.353283 0.467264,0.571795 0.758161,0.571795 0.290898,0 0.559335,-0.218512 0.758161,-0.571795 0.209311,-0.371909 0.338776,-0.888012 0.338776,-1.46013 0,-0.572122 -0.129465,-1.08822 -0.338776,-1.46013z"/>
  <path class="fil0" d="M3.55288 1.75657c0,-0.0589094 0.0477598,-0.106669 0.106669,-0.106669 0.0589094,0 0.106669,0.0477598 0.106669,0.106669l0 4.0602c0,0.0589094 -0.0477598,0.106669 -0.106669,0.106669 -0.0589094,0 -0.106669,-0.0477598 -0.106669,-0.106669l0 -4.0602z"/>
  <path class="fil0" d="M1.62945 3.89333c-0.0589094,0 -0.106669,-0.0477598 -0.106669,-0.106669 0,-0.0589094 0.0477598,-0.106669 0.106669,-0.106669l4.0602 0c0.0589094,0 0.106669,0.0477598 0.106669,0.106669 0,0.0589094 -0.0477598,0.106669 -0.106669,0.106669l-4.0602 0z"/>
  <path class="fil0" d="M2.55918 1.70673c0,-0.200299 -0.081185,-0.381638 -0.212437,-0.51289 -0.131252,-0.131252 -0.312591,-0.212441 -0.51289,-0.212441 -0.200299,0 -0.381642,0.081185 -0.512894,0.212437 -0.131252,0.131252 -0.212437,0.312594 -0.212437,0.512894 0,0.171157 0.119528,0.498283 0.272783,0.819953 0.14898,0.312701 0.327406,0.615224 0.458,0.762398 0.133724,-0.126583 0.291795,-0.388472 0.426453,-0.671114 0.166311,-0.349079 0.293421,-0.723382 0.293421,-0.911236zm-0.099311 -0.626016c0.160213,0.160213 0.259311,0.381547 0.259311,0.626016 0,0.210724 -0.133878,0.612323 -0.309043,0.979984 -0.162425,0.340929 -0.363295,0.658138 -0.530346,0.775677l-9.05512e-005 -0.000129921c-0.0296378,0.0208858 -0.0707953,0.0194016 -0.0989724,-0.00580709 -0.147902,-0.132642 -0.368307,-0.492673 -0.543799,-0.861024 -0.162031,-0.340091 -0.288406,-0.692669 -0.288406,-0.888701 0,-0.244469 0.0990984,-0.465807 0.259311,-0.62602 0.160213,-0.160213 0.381551,-0.259311 0.62602,-0.259311 0.244469,0 0.465803,0.0991024 0.626016,0.259315z"/>
  <path class="fil0" d="M2.55918 1.73021c0,-0.0441811 0.0358189,-0.08 0.08,-0.08 0.0441811,0 0.08,0.0358189 0.08,0.08 0,0.244469 -0.0990984,0.465803 -0.259311,0.626016 -0.160213,0.160213 -0.381547,0.259315 -0.626016,0.259315 -0.244469,0 -0.465807,-0.0991024 -0.62602,-0.259315 -0.160213,-0.160213 -0.259311,-0.381547 -0.259311,-0.626016 0,-0.0441811 0.0358189,-0.08 0.08,-0.08 0.0441811,0 0.08,0.0358189 0.08,0.08 0,0.200299 0.081185,0.381638 0.212437,0.51289 0.131252,0.131252 0.312594,0.212441 0.512894,0.212441 0.200299,0 0.381638,-0.081189 0.51289,-0.212441 0.131252,-0.131252 0.212437,-0.312591 0.212437,-0.51289z"/>
  <g id="_514592896">
   <path id="_514593472" class="fil0" d="M1.38722 2.0604l0.0273031 -0.396035c0.00146457,-0.0220039 0.0204961,-0.0386496 0.0425,-0.037185 0.00764961,0.000507874 0.0146496,0.00314567 0.0204646,0.00728346 0.0206929,0.0127087 0.0413701,0.0241929 0.0608937,0.0340787 0.0207244,0.0104843 0.0398189,0.0189173 0.0559173,0.0248425l0.0846339 0.0311614c0.0196378,0.00720079 0.0302087,0.0282087 0.0247795,0.0480197l-0.10513 0.453681c-0.00491732,0.0214843 -0.0263268,0.0349173 -0.047811,0.03 -0.00412598,-0.000944882 -0.00795669,-0.00250394 -0.0114173,-0.00454724 -0.0646693,-0.0327008 -0.101209,-0.0641969 -0.122331,-0.0942244 -0.023815,-0.0338583 -0.0283228,-0.0642008 -0.0298031,-0.0923858 -7.87402e-005,-0.00158268 -6.29921e-005,-0.00314173 3.93701e-005,-0.00468504l-3.93701e-005 -3.93701e-006zm0.102606 -0.327134l-0.0227756 0.330311c0.000976378,0.0153465 0.00373228,0.0315354 0.0152874,0.0479606 0.00975591,0.0138701 0.0254567,0.0287638 0.0504646,0.0449685l0.0855433 -0.369142 -0.0515512 -0.0189803c-0.0185236,-0.0068189 -0.0404961,-0.0165197 -0.0643504,-0.0285906 -0.0041378,-0.00209449 -0.00835039,-0.00427165 -0.0126181,-0.00652756z"/>
   <path id="_514593040" class="fil0" d="M1.89446 1.20937l-0.25063 0.216087c0.00509843,0.00242126 0.0101142,0.00485827 0.0150315,0.00729921 0.0246457,0.0122402 0.0464016,0.0245472 0.0637677,0.035811l0.0418858 0.0271614 0.244039 -0.289496c-0.0280787,-0.010374 -0.0494685,-0.0140394 -0.0664449,-0.0135354 -0.0200157,0.000590551 -0.034685,0.00817717 -0.0476496,0.0166732zm-0.350921 0.197244l0.300638 -0.259201 3.93701e-006 3.93701e-006c0.00122441,-0.00105512 0.00252362,-0.00205118 0.00390157,-0.00297244 0.0233819,-0.0156614 0.0503268,-0.0302008 0.0918386,-0.0314331 0.0371929,-0.00110236 0.0850236,0.00952362 0.151142,0.0426181l-3.93701e-006 7.87402e-006c0.00274016,0.00137402 0.00537008,0.00309055 0.0078189,0.00514961 0.0168268,0.0141496 0.0189921,0.0392677 0.00484252,0.0560945l-0.299602 0.355406c-0.0124843,0.0165945 -0.035878,0.0209213 -0.0535591,0.00943701l-0.0713701 -0.0462835c-0.0146417,-0.00949606 -0.0335984,-0.0201772 -0.0556417,-0.031126 -0.0201772,-0.0100236 -0.0433425,-0.020378 -0.0686024,-0.0303543l3.54331e-005 -9.44882e-005c-0.00579921,-0.00228346 -0.0111457,-0.00596063 -0.0155039,-0.011 -0.0144094,-0.0166535 -0.0125906,-0.0418425 0.00406299,-0.056252z"/>
   <path id="_514592992" class="fil0" d="M2.2228 1.97029c0.00491732,-0.0214843 0.0263268,-0.0349173 0.047811,-0.03 0.0214843,0.00491732 0.0349173,0.0263268 0.03,0.047811l-0.0525197 0.226657c-0.00491732,0.0214843 -0.0263268,0.0349173 -0.047811,0.03 -0.0041378,-0.000948819 -0.00797638,-0.00250787 -0.0114409,-0.00456299 -0.037563,-0.0191457 -0.0592283,-0.0380866 -0.0721142,-0.0564094 -0.0155984,-0.0221811 -0.0185354,-0.0417087 -0.0194843,-0.0597835 -7.87402e-005,-0.00158268 -6.29921e-005,-0.00314173 3.93701e-005,-0.00468504l-3.93701e-005 -3.93701e-006 0.0125157 -0.181579c0.00146457,-0.0220039 0.0204961,-0.0386496 0.0425,-0.037185 0.0220039,0.00146457 0.0386496,0.0204961 0.037185,0.0425l-0.0123583 0.179291c0.000429134,0.00524409 0.00150394,0.0106024 0.00495669,0.0155079 0.000456693,0.000649606 0.000948819,0.00130709 0.00147638,0.00197244l0.0392835 -0.169531z"/>
   <path id="_514593304" class="fil0" d="M2.33409 1.92129c-0.0141496,0.0168268 -0.0392677,0.0189921 -0.0560945,0.00484252 -0.0168268,-0.0141496 -0.0189921,-0.0392677 -0.00484252,-0.0560945l0.112122 -0.133008c-0.000944882,-3.14961e-005 -0.00185827,-3.54331e-005 -0.00273622,-7.87402e-006 -0.00594094,0.000173228 -0.0109291,0.0026063 -0.0154764,0.00548819l-0.135531 0.116846c-0.0166535,0.0144094 -0.0418425,0.0125906 -0.056252,-0.00406299 -0.0144094,-0.0166535 -0.0125906,-0.0418425 0.00406299,-0.056252l0.137539 -0.118579 3.93701e-006 3.93701e-006c0.00122441,-0.00105512 0.00252362,-0.00205118 0.00390157,-0.00297244 0.0149803,-0.0100354 0.0323268,-0.0193543 0.059563,-0.0201575 0.0229094,-0.000677165 0.0517874,0.0055748 0.0907992,0.0250984l-3.93701e-006 7.87402e-006c0.00274016,0.00137402 0.00537008,0.00309055 0.0078189,0.00514961 0.0168268,0.0141496 0.0189921,0.0392677 0.00484252,0.0560945l-0.149717 0.177602z"/>
   <path id="_514592872" class="fil0" d="M2.35619 1.99303c-0.0190669,0.0152205 -0.0414961,0.0238898 -0.0650748,0.0264134 -0.0228701,0.00245276 -0.0467047,-0.000992126 -0.0692874,-0.00992913l-1.1811e-005 2.75591e-005 -0.65502 -0.241161c-0.0663543,-0.0244291 -0.177299,-0.0860827 -0.259516,-0.161555 -0.0624134,-0.0572835 -0.109614,-0.123882 -0.113685,-0.19222 -0.000929134,-0.0158543 0.00752756,-0.0300906 0.0205591,-0.0372953 0.0575945,-0.0364724 0.138315,-0.0381024 0.220634,-0.0223031 0.110831,0.0212756 0.227984,0.0747402 0.287835,0.113555l0.58013 0.376224 3.14961e-005 -5.11811e-005c0.0211969,0.0128189 0.0386732,0.0301457 0.050685,0.050374 0.0120236,0.0202441 0.0184803,0.0433386 0.0177205,0.0677638 -0.000334646,0.0122402 -0.00615354,0.0230354 -0.0150394,0.0301063l3.93701e-005 5.11811e-005zm-0.0735157 -0.0529646c0.00137008,-0.000145669 0.00272835,-0.000346457 0.00406693,-0.000602362 -0.00061811,-0.00126378 -0.00129134,-0.00250787 -0.00201969,-0.00373228 -0.00519291,-0.00874803 -0.0131969,-0.0165118 -0.023189,-0.0225551l4.33071e-005 -7.08661e-005 -0.0011378 -0.000712598 -0.581256 -0.376957c-0.0535827,-0.034748 -0.158988,-0.0827165 -0.259394,-0.101988 -0.0535591,-0.0102756 -0.104465,-0.0122992 -0.141862,0.00100787 0.0116614,0.037563 0.0434882,0.0769724 0.0834173,0.113622 0.0741535,0.0680709 0.173634,0.123465 0.232957,0.145303l0.65502 0.241161 -1.5748e-005 4.72441e-005 0.0011063 0.00042126c0.0108858,0.00440157 0.022,0.00615354 0.0322638,0.00505512z"/>
  </g>
  <path class="fil1" d="M1.38726 2.0604l0 0zm0.703791 -0.904768l0 0zm0.380087 0.526807l0 0zm-0.373898 0.436874l0.0104606 -0.151783 -0.413858 -0.152374 -0.0952598 0.411087c-0.00491732,0.0214843 -0.0263268,0.0349173 -0.047811,0.03 -0.00412598,-0.000944882 -0.00795669,-0.00250394 -0.0114173,-0.00454724 -0.0646693,-0.0327008 -0.101209,-0.0641969 -0.122331,-0.0942244 -0.023815,-0.0338583 -0.0283228,-0.0642008 -0.0298031,-0.0923858 -7.87402e-005,-0.00158268 -6.29921e-005,-0.00314173 0,-0.00468898l0.0256811 -0.372524c-0.0366772,-0.0239449 -0.0733622,-0.0514331 -0.105622,-0.0810472 -0.0624134,-0.0572835 -0.109614,-0.123882 -0.113685,-0.19222 -0.000929134,-0.0158543 0.00752756,-0.0300906 0.0205591,-0.0372953 0.0575945,-0.0364724 0.138315,-0.0381024 0.220634,-0.0223031 0.0425236,0.00816142 0.0859803,0.0210669 0.126772,0.0360591l0.282614 -0.243654c0.00122441,-0.00105512 0.00252362,-0.00205118 0.00390157,-0.00297244 0.0233819,-0.0156614 0.0503268,-0.0302008 0.0918386,-0.0314331 0.0371929,-0.00110236 0.0850236,0.00952362 0.151138,0.042626 0.00274016,0.00137402 0.00537008,0.00309055 0.0078189,0.00514961 0.0168268,0.0141496 0.0189921,0.0392677 0.00484252,0.0560945l-0.271874 0.322512 0.370197 0.240079 0.114843 -0.0990039c0.00122441,-0.00105512 0.00252362,-0.00205118 0.00390157,-0.00297244 0.0149803,-0.0100354 0.0323268,-0.0193543 0.059563,-0.0201575 0.0229094,-0.000677165 0.0517874,0.0055748 0.0907953,0.0251063 0.00274016,0.00137402 0.00537008,0.00309055 0.0078189,0.00514961 0.0168268,0.0141496 0.0189921,0.0392677 0.00484252,0.0560945l-0.129236 0.153307c0.0113189,0.0197874 0.0173622,0.0422087 0.016626,0.0658819 -0.000334646,0.0122402 -0.00615354,0.0230354 -0.0150394,0.0301063l3.93701e-005 5.11811e-005c-0.0184488,0.0147244 -0.0400433,0.0233189 -0.0627795,0.0261496l-0.0453189 0.195579c-0.00491732,0.0214843 -0.0263268,0.0349173 -0.047811,0.03 -0.0041378,-0.000948819 -0.00797638,-0.00250787 -0.0114409,-0.00456299 -0.037563,-0.0191457 -0.0592283,-0.0380866 -0.0721142,-0.0564094 -0.0155984,-0.0221811 -0.0185354,-0.0417087 -0.0194843,-0.0597835 -7.87402e-005,-0.00158268 -6.29921e-005,-0.00314173 0,-0.00468898zm0.461933 -0.412587c0,-0.200299 -0.081185,-0.381638 -0.212437,-0.51289 -0.131252,-0.131252 -0.312591,-0.212441 -0.51289,-0.212441 -0.200299,0 -0.381642,0.081185 -0.512894,0.212437 -0.131252,0.131252 -0.212437,0.312594 -0.212437,0.512894 0,0.0851693 0.0295984,0.208957 0.0782165,0.351476 0.0348583,0.0686417 0.0803189,0.130992 0.13422,0.184894 0.131252,0.131252 0.312594,0.212441 0.512894,0.212441 0.200299,0 0.381638,-0.081189 0.51289,-0.212441 0.066252,-0.066252 0.119744,-0.145264 0.156484,-0.233035 0.0353937,-0.122087 0.0559528,-0.227787 0.0559528,-0.303335z"/>
  <path class="fil1" d="M1.83385 2.61554c-0.17522,0 -0.338555,-0.0509094 -0.47602,-0.13874 0.00772441,0.016626 0.0155551,0.0332638 0.0234724,0.0498819 0.14898,0.312701 0.327406,0.615224 0.458,0.762398 0.133724,-0.126583 0.291795,-0.388472 0.426453,-0.671114 0.0253031,-0.0531142 0.0497008,-0.106811 0.0728819,-0.16035 -0.143193,0.0995591 -0.317177,0.157925 -0.504787,0.157925z"/>
  <g id="_506618920">
   <path id="_506619280" class="fil2" d="M1.5943 1.69338l0.0846339 0.0311614 0.570386 0.21 -1.5748e-005 4.72441e-005 0.0011063 0.00042126c0.00549606,0.00222047 0.0110472,0.00376772 0.0165197,0.00461417 0.000346457,4.72441e-005 0.00069685,9.84252e-005 0.00104331,0.000153543 0.00501181,0.000692913 0.00994488,0.000795276 0.0147008,0.000287402 0.00137008,-0.000145669 0.00272835,-0.000346457 0.00406693,-0.000602362 -0.00061811,-0.00126378 -0.00129134,-0.00250787 -0.00201969,-0.00373228 -0.00519291,-0.00874803 -0.0131969,-0.0165118 -0.023189,-0.0225551l4.33071e-005 -7.08661e-005 -0.0011378 -0.000712598 -0.0757047 -0.0490984c-0.000665354,-0.000401575 -0.00132283,-0.000826772 -0.0019685,-0.00127559l-0.432213 -0.280299 -0.0713701 -0.0462835c-0.000161417,-0.000106299 -0.000322835,-0.000208661 -0.000484252,-0.000314961 -0.0145748,-0.00941732 -0.0333583,-0.0199843 -0.0551575,-0.030811 -0.0201772,-0.0100236 -0.0433425,-0.020378 -0.0686024,-0.0303543l3.54331e-005 -9.44882e-005c-0.00076378,-0.000299213 -0.00151575,-0.000625984 -0.00226378,-0.000972441 -0.0418976,-0.0163976 -0.0879134,-0.0308031 -0.132921,-0.0394409 -0.0535591,-0.0102756 -0.104465,-0.0122992 -0.141862,0.00100787 0.0116614,0.037563 0.0434882,0.0769724 0.0834173,0.113622 0.0339764,0.031189 0.0732677,0.0597165 0.111579,0.0835748 0.00159055,0.000834646 0.00311417,0.00177559 0.00456693,0.00280709 0.0206929,0.0127087 0.0413701,0.0241929 0.060878,0.0341102 0.0207323,0.0104685 0.039815,0.018878 0.0559331,0.024811z"/>
   <path id="_510071632" class="fil2" d="M1.72263 1.46856l0.0418858 0.0271614 0.244039 -0.289496c-0.0280787,-0.010374 -0.0494685,-0.0140394 -0.0664449,-0.0135354 -0.0200157,0.000590551 -0.034685,0.00817717 -0.0476496,0.0166732l-0.25063 0.216087c0.00509843,0.00242126 0.0101142,0.00485827 0.0150315,0.00729921 0.0246457,0.0122402 0.0464016,0.0245472 0.0637677,0.035811z"/>
   <path id="_506618896" class="fil2" d="M1.61835 1.78736l-0.0515512 -0.0189803c-0.0185236,-0.0068189 -0.0404961,-0.0165197 -0.0643504,-0.0285906 -0.0041378,-0.00209449 -0.00835039,-0.00427165 -0.0126181,-0.00652756l-0.0227756 0.330311c0.000976378,0.0153465 0.00373228,0.0315354 0.0152874,0.0479606 0.00975591,0.0138701 0.0254567,0.0287638 0.0504646,0.0449685l0.0855433 -0.369142z"/>
   <path id="_506619232" class="fil2" d="M2.36706 1.74251l-0.095311 0.0821693 0.025626 0.016622 0.0878976 -0.104272c-0.000944882,-3.14961e-005 -0.00185827,-3.54331e-005 -0.00273622,-7.87402e-006 -0.00594094,0.000173228 -0.0109291,0.0026063 -0.0154764,0.00548819z"/>
   <path id="_506618728" class="fil2" d="M2.18352 2.13982l0.0308268 -0.133031 -0.0285709 -0.0105197 -0.00868898 0.126071c0.000429134,0.00524409 0.00150394,0.0106024 0.00495669,0.0155079l0.00147638 0.00197244z"/>
  </g>
  <g id="_506621440">
   <path id="_506619088" class="fil3" d="M2.6504 2.07291c-0.0398386,0.134335 -0.0947559,0.283634 -0.158752,0.433339 0.00347244,0.000917323 0.00692913,0.00202362 0.0103622,0.00331496 0.0221142,0.00840157 0.0445394,0.0165709 0.0672717,0.0245 0.043378,-0.11161 0.092374,-0.215937 0.146268,-0.311697 0.0746063,-0.132559 0.158799,-0.249189 0.250827,-0.346764 -0.0637717,0.0231102 -0.126024,0.049315 -0.186567,0.0784252 -0.00329921,0.00158268 -0.0221535,0.0142638 -0.0469094,0.0296772l-0.0186969 0.0116339c-0.0126693,0.00788189 -0.0263543,0.0127795 -0.0402244,0.0148858 -0.00708661,0.0212638 -0.0149567,0.0421732 -0.0235787,0.062685z"/>
   <path id="_506619160" class="fil3" d="M3.55288 1.76458c-0.249476,0.046189 -0.47722,0.252303 -0.651492,0.561953 -0.0467953,0.0831457 -0.0895984,0.173496 -0.127854,0.270067 0.0894528,0.0238031 0.182547,0.0441299 0.278732,0.0606575 0.159106,0.0273425 0.326815,0.044189 0.500614,0.0490984l0 -0.941776z"/>
   <path id="_506619328" class="fil3" d="M3.76622 1.76458l0 0.94178c0.270772,-0.00763386 0.526913,-0.0441772 0.758902,-0.104209 0.00685827,-0.00177559 0.0136929,-0.00357087 0.0205118,-0.00538583 -0.0382756,-0.0966339 -0.0811024,-0.187039 -0.127921,-0.270232 -0.174272,-0.30965 -0.402016,-0.515764 -0.651492,-0.561953z"/>
   <path id="_506619400" class="fil3" d="M4.35333 1.87626c0.0917874,0.0974449 0.175772,0.213846 0.250209,0.34611 0.0539094,0.0957874 0.102917,0.200146 0.146303,0.311791 0.133461,-0.046622 0.256555,-0.101575 0.366957,-0.163539 -0.00676772,-0.00696457 -0.0135866,-0.0138819 -0.0204567,-0.020752 -0.208024,-0.208028 -0.460957,-0.371161 -0.743012,-0.47361z"/>
   <path id="_506617960" class="fil3" d="M5.25971 2.53422c-0.130913,0.0770394 -0.278839,0.144673 -0.440303,0.200941 0.0869055,0.28387 0.139791,0.604551 0.148976,0.944835l0.720339 0c-0.0222992,-0.431173 -0.179004,-0.826799 -0.429012,-1.14578z"/>
   <path id="_506618344" class="fil3" d="M4.75498 3.68c-0.00903543,-0.318894 -0.0583543,-0.618169 -0.139031,-0.881957 -0.012437,0.00337795 -0.0249331,0.00669291 -0.0374961,0.00994488 -0.250134,0.0647244 -0.524417,0.103957 -0.812232,0.111768l0 0.760244 0.98876 0z"/>
   <path id="_506618200" class="fil3" d="M3.55288 3.68l0 -0.76024c-0.185315,-0.00502362 -0.365083,-0.0230512 -0.536449,-0.0525 -0.108067,-0.0185748 -0.212744,-0.0417402 -0.313315,-0.0690984 -0.0806535,0.263756 -0.129965,0.562992 -0.138996,0.881839l0.98876 0z"/>
   <path id="_506618152" class="fil3" d="M2.35071 3.68c0.00918504,-0.340268 0.0620669,-0.660937 0.148965,-0.944795 -0.0245354,-0.00856299 -0.0487598,-0.0173898 -0.0726614,-0.0264724 -0.00791339,-0.00298031 -0.0152638,-0.00680315 -0.0219882,-0.0113268 -0.161512,0.336854 -0.359933,0.648677 -0.525236,0.764988l-9.05512e-005 -0.000129921c-0.0296378,0.0208858 -0.0707953,0.0194016 -0.0989724,-0.00580709 -0.0318189,-0.0285354 -0.0669961,-0.0675984 -0.104358,-0.115004 -0.011063,0.0494449 -0.020311,0.0994961 -0.0276614,0.150071 -0.00895669,0.0616339 -0.0151299,0.124504 -0.0183858,0.188476l0.72039 0z"/>
   <path id="_506618608" class="fil3" d="M2.35071 3.89333l-0.720339 0c0.0222992,0.431173 0.179004,0.826799 0.429012,1.14578 0.130909,-0.0770394 0.278839,-0.144673 0.440303,-0.200941 -0.0869055,-0.28387 -0.139791,-0.604551 -0.148976,-0.944835z"/>
   <path id="_506618416" class="fil3" d="M2.56412 3.89333c0.00903543,0.318898 0.0583543,0.618173 0.139031,0.881957 0.0124331,-0.00337795 0.0249331,-0.00668898 0.0374921,-0.00994094 0.250134,-0.0647244 0.524413,-0.103957 0.812236,-0.111768l0 -0.760248 -0.98876 0z"/>
   <path id="_506617984" class="fil3" d="M3.76622 3.89333l0 0.760248c0.287823,0.00781102 0.562102,0.0470433 0.812236,0.111768 0.0125591,0.00325197 0.0250551,0.00656299 0.0374921,0.00994094 0.0806772,-0.263783 0.129996,-0.563063 0.139031,-0.881957l-0.98876 0z"/>
   <path id="_506618272" class="fil3" d="M4.96839 3.89333c-0.00918504,0.340283 -0.0620709,0.660965 -0.148976,0.944835 0.161465,0.0562677 0.30939,0.123902 0.440303,0.200941 0.250008,-0.318976 0.406713,-0.714602 0.429012,-1.14578l-0.720339 0z"/>
   <path id="_506621776" class="fil3" d="M5.1168 5.20271c-0.110402,-0.0619646 -0.233496,-0.116913 -0.366957,-0.163535 -0.0433858,0.111646 -0.0923976,0.216004 -0.146303,0.311787 -0.074437,0.132264 -0.158421,0.248665 -0.250209,0.34611 0.282055,-0.102449 0.534988,-0.265583 0.743012,-0.47361 0.00687008,-0.00687008 0.013689,-0.0137874 0.0204567,-0.020752z"/>
   <path id="_506621896" class="fil3" d="M4.41771 5.2468c0.0468189,-0.0831929 0.0896457,-0.173598 0.127917,-0.270232 -0.00681496,-0.00181496 -0.0136496,-0.0036063 -0.0205039,-0.00538189 -0.231988,-0.0600315 -0.48813,-0.0965748 -0.758906,-0.104209l0 0.941776c0.249476,-0.046189 0.47722,-0.252303 0.651492,-0.561953z"/>
   <path id="_506621296" class="fil3" d="M3.55288 5.80875l0 -0.941776c-0.270776,0.00763386 -0.526917,0.0441772 -0.758906,0.104209 -0.00685433,0.00177559 -0.0136929,0.00356693 -0.0205079,0.00538189 0.0382756,0.0966339 0.0811024,0.187039 0.127921,0.270232 0.174272,0.30965 0.402016,0.515764 0.651492,0.561953z"/>
   <path id="_506621080" class="fil3" d="M2.96576 5.69707c-0.0917874,-0.0974449 -0.175772,-0.213846 -0.250209,-0.34611 -0.0539094,-0.0957835 -0.102917,-0.200146 -0.146303,-0.311787 -0.133461,0.046622 -0.256555,0.101571 -0.366957,0.163535 0.00676772,0.00696457 0.0135866,0.0138819 0.0204567,0.020752 0.208024,0.208028 0.460957,0.371161 0.743012,0.47361z"/>
  </g>
 </g>
 <rect class="fil4" width="6.82666" height="6.82666"/>
</svg>
